<svg width="24" height="24" viewBox="0 0 24 24" fill="none" xmlns="http://www.w3.org/2000/svg">
<path d="M11.4897 21.75C5.86314 21.75 1.28223 17.15 1.28223 11.5C1.28223 5.85 5.86314 1.25 11.4897 1.25C17.1163 1.25 21.6972 5.85 21.6972 11.5C21.6972 17.15 17.1163 21.75 11.4897 21.75ZM11.4897 2.75C6.67974 2.75 2.776 6.68 2.776 11.5C2.776 16.32 6.67974 20.25 11.4897 20.25C16.2997 20.25 20.2034 16.32 20.2034 11.5C20.2034 6.68 16.2997 2.75 11.4897 2.75Z" fill="#757575"/>
<path d="M21.9465 22.7499C21.7573 22.7499 21.5681 22.6799 21.4187 22.5299L19.427 20.5299C19.1383 20.2399 19.1383 19.7599 19.427 19.4699C19.7158 19.1799 20.1939 19.1799 20.4826 19.4699L22.4743 21.4699C22.7631 21.7599 22.7631 22.2399 22.4743 22.5299C22.325 22.6799 22.1358 22.7499 21.9465 22.7499Z" fill="#757575"/>
</svg>
