<svg width="28" height="28" viewBox="0 0 28 28" fill="none" xmlns="http://www.w3.org/2000/svg">
<path d="M26.7477 12.3182L24.9344 10.2115C24.5877 9.8115 24.3077 9.06483 24.3077 8.5315V6.26483C24.3077 4.8515 23.1477 3.6915 21.7344 3.6915H19.4677C18.9477 3.6915 18.1877 3.4115 17.7877 3.06483L15.681 1.2515C14.761 0.464832 13.2544 0.464832 12.321 1.2515L10.2276 3.07817C9.82765 3.4115 9.06765 3.6915 8.54765 3.6915H6.24098C4.82765 3.6915 3.66765 4.8515 3.66765 6.26483V8.54483C3.66765 9.06483 3.38765 9.8115 3.05432 10.2115L1.25432 12.3315C0.480983 13.2515 0.480983 14.7448 1.25432 15.6648L3.05432 17.7848C3.38765 18.1848 3.66765 18.9315 3.66765 19.4515V21.7315C3.66765 23.1448 4.82765 24.3048 6.24098 24.3048H8.54765C9.06765 24.3048 9.82765 24.5848 10.2276 24.9315L12.3344 26.7448C13.2544 27.5315 14.761 27.5315 15.6944 26.7448L17.801 24.9315C18.201 24.5848 18.9477 24.3048 19.481 24.3048H21.7477C23.161 24.3048 24.321 23.1448 24.321 21.7315V19.4648C24.321 18.9448 24.601 18.1848 24.9477 17.7848L26.761 15.6782C27.5344 14.7582 27.5344 13.2382 26.7477 12.3182ZM19.5477 11.4782L13.1077 17.9182C12.921 18.1048 12.6677 18.2115 12.401 18.2115C12.1344 18.2115 11.881 18.1048 11.6944 17.9182L8.46765 14.6915C8.08098 14.3048 8.08098 13.6648 8.46765 13.2782C8.85432 12.8915 9.49432 12.8915 9.88098 13.2782L12.401 15.7982L18.1344 10.0648C18.521 9.67817 19.161 9.67817 19.5477 10.0648C19.9344 10.4515 19.9344 11.0915 19.5477 11.4782Z" fill="#1E93FF"/>
</svg>
